HIERARCHY
ROOT Hips
{
	OFFSET 0.000000 121.760803 0.000000
	CHANNELS 6 Xposition Yposition Zposition Xrotation Yrotation Zrotation 
	JOINT Spine
	{
		OFFSET 0.072000 7.257294 -0.789700
		CHANNELS 3 Xrotation Yrotation Zrotation
		JOINT Spine1
		{
			OFFSET 0.000000 12.508769 -0.658067
			CHANNELS 3 Xrotation Yrotation Zrotation
			JOINT Spine1_split
			{
				OFFSET 0.000000 12.508769 -0.658067
				CHANNELS 3 Xrotation Yrotation Zrotation
				JOINT Spine2
				{
					OFFSET 0.000000 12.508769 -0.658067
					CHANNELS 3 Xrotation Yrotation Zrotation
					JOINT Neck
					{
						OFFSET 0.000000 14.033295 7.520400
						CHANNELS 3 Xrotation Yrotation Zrotation
						JOINT Head
						{
							OFFSET 0.000000 8.198502 5.703100
							CHANNELS 3 Xrotation Yrotation Zrotation
							JOINT HeadTop_End
							{
								OFFSET 0.000000 17.760803 13.332701
								CHANNELS 3 Xrotation Yrotation Zrotation
								End Site
								{
									OFFSET 0.000000 0.000000 0.000000
								}
							}
						}
					}
					JOINT LeftShoulder
					{
						OFFSET 6.292450 5.785301 -0.669000
						CHANNELS 3 Xrotation Yrotation Zrotation
						JOINT LeftShoulder_split
						{
							OFFSET 6.292450 5.785301 -0.669000
							CHANNELS 3 Xrotation Yrotation Zrotation
							JOINT LeftArm
							{
								OFFSET 13.907140 -6.093903 1.965100
								CHANNELS 3 Xrotation Yrotation Zrotation
								JOINT LeftForeArm
								{
									OFFSET 34.140198 0.000000 0.000000
									CHANNELS 3 Xrotation Yrotation Zrotation
									JOINT LeftHand
									{
										OFFSET 40.960209 0.000000 0.000000
										CHANNELS 3 Xrotation Yrotation Zrotation
										JOINT LeftHandThumb1
										{
											OFFSET 10.006996 -7.170425 9.573125
											CHANNELS 3 Xrotation Yrotation Zrotation
											JOINT LeftHandThumb2
											{
												OFFSET 1.835007 -1.059448 1.059443
												CHANNELS 3 Xrotation Yrotation Zrotation
												JOINT LeftHandThumb3
												{
													OFFSET 2.112267 -1.219513 1.219518
													CHANNELS 3 Xrotation Yrotation Zrotation
													JOINT LeftHandThumb4
													{
														OFFSET 4.843811 -2.796570 2.796576
														CHANNELS 3 Xrotation Yrotation Zrotation
														End Site
														{
															OFFSET 0.000000 0.000000 0.000000
														}
													}
												}
											}
										}
										JOINT LeftHandIndex1
										{
											OFFSET 18.389847 -0.922348 4.596882
											CHANNELS 3 Xrotation Yrotation Zrotation
											JOINT LeftHandIndex2
											{
												OFFSET 4.711273 0.000000 0.000000
												CHANNELS 3 Xrotation Yrotation Zrotation
												JOINT LeftHandIndex3
												{
													OFFSET 2.886131 0.000000 0.000000
													CHANNELS 3 Xrotation Yrotation Zrotation
													JOINT LeftHandIndex4
													{
														OFFSET 6.145912 0.000000 0.000000
														CHANNELS 3 Xrotation Yrotation Zrotation
														End Site
														{
															OFFSET 0.000000 0.000000 0.000000
														}
													}
												}
											}
										}
										JOINT LeftHandMiddle1
										{
											OFFSET 18.013008 0.000000 0.000000
											CHANNELS 3 Xrotation Yrotation Zrotation
											JOINT LeftHandMiddle2
											{
												OFFSET 4.946693 0.000000 0.000000
												CHANNELS 3 Xrotation Yrotation Zrotation
												JOINT LeftHandMiddle3
												{
													OFFSET 3.342232 0.000000 0.000000
													CHANNELS 3 Xrotation Yrotation Zrotation
													JOINT LeftHandMiddle4
													{
														OFFSET 4.461754 0.000000 0.000000
														CHANNELS 3 Xrotation Yrotation Zrotation
														End Site
														{
															OFFSET 0.000000 0.000000 0.000000
														}
													}
												}
											}
										}
										JOINT LeftHandRing1
										{
											OFFSET 15.849892 -0.102921 -4.126150
											CHANNELS 3 Xrotation Yrotation Zrotation
											JOINT LeftHandRing2
											{
												OFFSET 3.527054 0.000000 0.000000
												CHANNELS 3 Xrotation Yrotation Zrotation
												JOINT LeftHandRing3
												{
													OFFSET 2.961098 0.000000 0.000000
													CHANNELS 3 Xrotation Yrotation Zrotation
													JOINT LeftHandRing4
													{
														OFFSET 4.927200 0.000000 0.000000
														CHANNELS 3 Xrotation Yrotation Zrotation
														End Site
														{
															OFFSET 0.000000 0.000000 0.000000
														}
													}
												}
											}
										}
										JOINT LeftHandPinky1
										{
											OFFSET 12.791824 -0.832031 -6.799156
											CHANNELS 3 Xrotation Yrotation Zrotation
											JOINT LeftHandPinky2
											{
												OFFSET 3.327133 0.000000 0.000000
												CHANNELS 3 Xrotation Yrotation Zrotation
												JOINT LeftHandPinky3
												{
													OFFSET 3.014900 0.000000 0.000000
													CHANNELS 3 Xrotation Yrotation Zrotation
													JOINT LeftHandPinky4
													{
														OFFSET 5.847786 0.000000 0.000000
														CHANNELS 3 Xrotation Yrotation Zrotation
														End Site
														{
															OFFSET 0.000000 0.000000 0.000000
														}
													}
												}
											}
										}
									}
								}
							}
						}
					}
					JOINT RightShoulder
					{
						OFFSET -6.292450 5.785301 -0.669000
						CHANNELS 3 Xrotation Yrotation Zrotation
						JOINT RightShoulder_split
						{
							OFFSET -6.292450 5.785301 -0.669000
							CHANNELS 3 Xrotation Yrotation Zrotation
							JOINT RightArm
							{
								OFFSET -13.907140 -6.093903 1.965100
								CHANNELS 3 Xrotation Yrotation Zrotation
								JOINT RightForeArm
								{
									OFFSET -34.140198 0.000000 0.000000
									CHANNELS 3 Xrotation Yrotation Zrotation
									JOINT RightHand
									{
										OFFSET -40.960209 0.000000 0.000000
										CHANNELS 3 Xrotation Yrotation Zrotation
										JOINT RightHandThumb1
										{
											OFFSET -10.007050 -7.170456 9.573117
											CHANNELS 3 Xrotation Yrotation Zrotation
											JOINT RightHandThumb2
											{
												OFFSET -1.835007 -1.059448 1.059443
												CHANNELS 3 Xrotation Yrotation Zrotation
												JOINT RightHandThumb3
												{
													OFFSET -2.112267 -1.219513 1.219518
													CHANNELS 3 Xrotation Yrotation Zrotation
													JOINT RightHandThumb4
													{
														OFFSET -4.843834 -2.796585 2.796590
														CHANNELS 3 Xrotation Yrotation Zrotation
														End Site
														{
															OFFSET 0.000000 0.000000 0.000000
														}
													}
												}
											}
										}
										JOINT RightHandIndex1
										{
											OFFSET -18.389870 -0.922424 4.596786
											CHANNELS 3 Xrotation Yrotation Zrotation
											JOINT RightHandIndex2
											{
												OFFSET -4.711273 0.000000 0.000000
												CHANNELS 3 Xrotation Yrotation Zrotation
												JOINT RightHandIndex3
												{
													OFFSET -2.886131 0.000000 0.000000
													CHANNELS 3 Xrotation Yrotation Zrotation
													JOINT RightHandIndex4
													{
														OFFSET -6.145920 0.000000 0.000000
														CHANNELS 3 Xrotation Yrotation Zrotation
														End Site
														{
															OFFSET 0.000000 0.000000 0.000000
														}
													}
												}
											}
										}
										JOINT RightHandMiddle1
										{
											OFFSET -18.013008 0.000000 0.000000
											CHANNELS 3 Xrotation Yrotation Zrotation
											JOINT RightHandMiddle2
											{
												OFFSET -4.946693 0.000000 0.000000
												CHANNELS 3 Xrotation Yrotation Zrotation
												JOINT RightHandMiddle3
												{
													OFFSET -3.342232 0.000000 0.000000
													CHANNELS 3 Xrotation Yrotation Zrotation
													JOINT RightHandMiddle4
													{
														OFFSET -4.461754 0.000000 0.000000
														CHANNELS 3 Xrotation Yrotation Zrotation
														End Site
														{
															OFFSET 0.000000 0.000000 0.000000
														}
													}
												}
											}
										}
										JOINT RightHandRing1
										{
											OFFSET -15.849876 -0.102936 -4.126237
											CHANNELS 3 Xrotation Yrotation Zrotation
											JOINT RightHandRing2
											{
												OFFSET -3.527054 0.000000 0.000000
												CHANNELS 3 Xrotation Yrotation Zrotation
												JOINT RightHandRing3
												{
													OFFSET -2.961098 0.000000 0.000000
													CHANNELS 3 Xrotation Yrotation Zrotation
													JOINT RightHandRing4
													{
														OFFSET -4.927200 0.000000 0.000000
														CHANNELS 3 Xrotation Yrotation Zrotation
														End Site
														{
															OFFSET 0.000000 0.000000 0.000000
														}
													}
												}
											}
										}
										JOINT RightHandPinky1
										{
											OFFSET -12.791786 -0.832077 -6.799222
											CHANNELS 3 Xrotation Yrotation Zrotation
											JOINT RightHandPinky2
											{
												OFFSET -3.327133 0.000000 0.000000
												CHANNELS 3 Xrotation Yrotation Zrotation
												JOINT RightHandPinky3
												{
													OFFSET -3.014900 0.000000 0.000000
													CHANNELS 3 Xrotation Yrotation Zrotation
													JOINT RightHandPinky4
													{
														OFFSET -5.847786 0.000000 0.000000
														CHANNELS 3 Xrotation Yrotation Zrotation
														End Site
														{
															OFFSET 0.000000 0.000000 0.000000
														}
													}
												}
											}
										}
									}
								}
							}
						}
					}
				}
			}
		}
	}
	JOINT LeftUpLeg
	{
		OFFSET 13.026900 -6.336304 -1.092800
		CHANNELS 3 Xrotation Yrotation Zrotation
		JOINT LeftLeg
		{
			OFFSET 0.524474 -46.096886 9.782700
			CHANNELS 3 Xrotation Yrotation Zrotation
			JOINT LeftFoot
			{
				OFFSET -0.524474 -53.427422 -12.948200
				CHANNELS 3 Xrotation Yrotation Zrotation
				JOINT LeftToeBase
				{
					OFFSET 0.192200 -14.009700 16.364100
					CHANNELS 3 Xrotation Yrotation Zrotation
					JOINT LeftToe_End
					{
						OFFSET -1.784700 -0.561700 9.474800
						CHANNELS 3 Xrotation Yrotation Zrotation
						End Site
						{
							OFFSET 0.000000 0.000000 0.000000
						}
					}
				}
			}
		}
	}
	JOINT RightUpLeg
	{
		OFFSET -12.883000 -6.336304 -1.092800
		CHANNELS 3 Xrotation Yrotation Zrotation
		JOINT RightLeg
		{
			OFFSET -0.524587 -46.096825 9.782800
			CHANNELS 3 Xrotation Yrotation Zrotation
			JOINT RightFoot
			{
				OFFSET 0.524587 -53.427383 -12.948300
				CHANNELS 3 Xrotation Yrotation Zrotation
				JOINT RightToeBase
				{
					OFFSET -0.192200 -14.009700 16.364100
					CHANNELS 3 Xrotation Yrotation Zrotation
					JOINT RightToe_End
					{
						OFFSET 1.784700 -0.561700 9.474800
						CHANNELS 3 Xrotation Yrotation Zrotation
						End Site
						{
							OFFSET 0.000000 0.000000 0.000000
						}
					}
				}
			}
		}
	}
}
MOTION
Frames: 4
Frame Time: 0.016667
-4.200120 93.471565 1.966126 7.161569 -58.834382 1.524607 5.121560 10.398752 -0.710309 6.079588 5.798317 -0.521034 0.000000 0.000000 0.000000 5.085127 16.136074 1.189175 6.289646 5.421245 -4.908951 -11.393632 17.889737 5.359089 -0.000001 0.000000 0.000001 3.544252 4.756011 -11.623018 0.000000 0.000000 0.000000 -54.038835 -33.116421 -50.381545 -0.000046 -81.882357 -0.000079 -58.768396 25.992632 38.870337 -14.557461 10.837951 12.229977 0.749574 -4.257744 13.305538 -10.783742 -23.179376 -4.132422 -0.000000 -0.000000 0.000001 -0.809543 2.578172 -31.496441 3.095898 5.163776 -61.866979 0.503791 2.378642 -23.913131 -0.000000 -0.000001 0.000003 -2.430839 1.729208 -41.460922 2.952355 5.084723 -60.259925 1.321749 3.707985 -39.227836 0.000001 -0.000000 0.000001 -6.054123 -0.166601 -49.857574 3.046249 5.137033 -61.313952 0.351699 2.001103 -19.935119 -0.000000 -0.000000 -0.000001 -8.298299 -6.522659 -38.520150 2.848789 5.024385 -59.084415 0.876792 3.084715 -31.727506 -0.000000 0.000000 0.000000 -14.733700 2.115969 -4.463089 0.000000 0.000000 0.000000 72.337536 138.834031 -52.653522 0.000005 29.080722 -0.000002 -49.752440 -7.371314 -31.498749 8.377144 -4.904129 11.021991 21.620175 -18.183898 -18.379187 -0.702870 -49.821217 -32.535169 -0.000001 0.000000 -0.000001 0.558927 -4.406584 25.436683 1.653060 -3.560342 49.799080 1.737708 -3.630072 51.149210 -0.000001 0.000000 -0.000002 10.969829 -12.875553 52.800832 6.387583 -4.324402 111.833679 0.247352 -1.499127 18.739114 -0.000001 -0.000001 -0.000000 3.705095 -7.151322 57.622440 5.328208 -4.608681 98.293430 1.627343 -3.538505 49.384006 0.000000 -0.000000 0.000001 0.474821 -5.172990 58.987672 3.194305 -4.421935 71.674141 1.771404 -3.656906 51.679547 0.000000 -0.000000 0.000000 -52.419171 -15.918053 31.482237 35.521744 -8.230425 -0.443258 21.834967 0.616268 -6.928035 -0.000008 0.000011 0.000004 -0.000001 -0.000000 0.000000 -52.664102 -1.039797 -17.123423 60.326539 1.698932 0.146306 -0.508271 -0.814702 9.973067 -10.353144 -0.000001 -0.000001 -0.000000 -0.000001 -0.000000 
-4.555004 94.766319 -2.688356 8.655700 -59.884845 1.951980 5.175989 10.422584 0.182411 6.266321 5.663344 -0.193640 0.000000 0.000000 0.000000 5.219004 15.988015 1.524877 6.117328 5.473302 -4.875339 -11.907631 18.231202 4.903862 0.000001 0.000000 -0.000000 3.410890 4.228988 -11.245754 0.000000 0.000000 0.000000 -53.679720 -32.244589 -50.209581 0.000589 -82.808298 0.000557 -57.769965 25.806932 38.829055 -14.557457 10.837949 12.229977 0.749575 -4.257743 13.305540 -10.783739 -23.179376 -4.132422 0.000000 -0.000000 0.000000 -0.809543 2.578173 -31.496441 3.095898 5.163774 -61.866979 0.503793 2.378642 -23.913131 -0.000001 -0.000000 -0.000001 -2.430839 1.729209 -41.460925 2.952353 5.084725 -60.259925 1.321751 3.707985 -39.227832 0.000001 -0.000000 0.000000 -6.054122 -0.166601 -49.857567 3.046248 5.137032 -61.313946 0.351700 2.001103 -19.935118 0.000000 0.000000 -0.000000 -8.298298 -6.522658 -38.520150 2.848789 5.024384 -59.084415 0.876792 3.084714 -31.727513 -0.000000 0.000000 0.000001 -14.874830 3.395343 -4.575095 0.000000 0.000000 0.000000 74.932434 137.222079 -55.175132 -0.000001 32.460658 -0.000006 -50.128585 -7.281806 -32.986064 8.377144 -4.904129 11.021990 21.620175 -18.183897 -18.379190 -0.702872 -49.821220 -32.535162 -0.000002 -0.000000 -0.000002 0.558927 -4.406584 25.436681 1.653060 -3.560341 49.799083 1.737708 -3.630072 51.149214 0.000000 -0.000000 0.000001 10.969829 -12.875551 52.800825 6.387581 -4.324404 111.833679 0.247351 -1.499127 18.739114 0.000001 0.000001 -0.000001 3.705095 -7.151322 57.622440 5.328206 -4.608680 98.293430 1.627343 -3.538505 49.384006 -0.000000 -0.000000 0.000003 0.474823 -5.172989 58.987672 3.194306 -4.421934 71.674141 1.771403 -3.656905 51.679544 0.000000 0.000000 0.000000 -56.182151 -15.966546 28.292573 43.439511 -5.260225 -0.324824 15.313784 0.220982 -6.803335 -0.000001 0.000003 -0.000001 -0.000001 -0.000000 0.000002 -54.436136 -3.551022 -13.915000 58.605263 1.381919 0.245381 4.231119 -0.397944 10.586352 -10.629473 -0.016991 0.877578 -0.000000 0.000002 -0.000000 
-4.821692 96.484169 -7.628605 11.044732 -61.447414 3.084224 5.106828 10.641635 0.953533 6.308407 5.733788 0.124731 0.000000 0.000000 0.000000 5.204268 16.033849 1.859609 6.010205 5.497589 -4.746237 -12.496668 18.583678 4.459509 -0.000001 -0.000000 0.000001 3.342835 3.885605 -11.068019 0.000000 0.000000 0.000000 -52.875790 -31.812409 -49.380611 -0.000053 -83.745366 -0.000034 -57.807477 26.117738 39.099001 -14.557461 10.837951 12.229976 0.749576 -4.257744 13.305538 -10.783739 -23.179372 -4.132424 -0.000001 -0.000001 -0.000000 -0.809543 2.578174 -31.496441 3.095900 5.163777 -61.866979 0.503793 2.378643 -23.913131 -0.000001 -0.000000 0.000003 -2.430839 1.729211 -41.460922 2.952355 5.084722 -60.259925 1.321752 3.707986 -39.227832 0.000000 -0.000000 0.000001 -6.054122 -0.166600 -49.857563 3.046249 5.137031 -61.313946 0.351699 2.001104 -19.935119 0.000000 0.000000 0.000002 -8.298300 -6.522656 -38.520146 2.848789 5.024385 -59.084415 0.876792 3.084715 -31.727506 0.000000 0.000000 -0.000002 -14.973894 4.793936 -4.441299 0.000000 0.000000 0.000000 77.819241 135.933236 -57.695687 -0.000028 35.490052 0.000019 -50.675199 -7.755471 -34.661714 8.377146 -4.904130 11.021992 21.620175 -18.183898 -18.379190 -0.702871 -49.821217 -32.535148 0.000001 0.000000 -0.000001 0.558927 -4.406584 25.436683 1.653059 -3.560342 49.799083 1.737707 -3.630072 51.149214 -0.000000 0.000000 -0.000001 10.969830 -12.875554 52.800825 6.387580 -4.324403 111.833672 0.247351 -1.499128 18.739114 0.000000 -0.000000 -0.000000 3.705095 -7.151323 57.622440 5.328210 -4.608680 98.293430 1.627343 -3.538504 49.383999 0.000000 -0.000000 -0.000001 0.474821 -5.172990 58.987672 3.194304 -4.421935 71.674141 1.771404 -3.656906 51.679540 -0.000000 -0.000000 0.000000 -59.300303 -15.018007 24.912970 49.765421 -3.101998 -0.209781 9.868671 0.018673 -7.165148 -0.790463 0.000005 0.000005 -0.000000 0.000000 -0.000000 -55.700070 -6.463519 -10.130846 56.237414 0.869369 0.087631 6.462599 0.594936 11.180617 -10.527593 0.030300 -1.362108 -0.000000 0.000001 -0.000000 
-5.062612 98.559151 -12.897083 14.379691 -63.439077 5.289918 4.970365 10.952607 1.373555 6.230974 6.000043 0.369760 0.000000 0.000000 0.000000 5.078931 16.267955 2.126720 5.962566 5.490732 -4.561726 -13.126857 18.849126 4.125947 -0.000000 0.000000 -0.000001 3.352117 3.739655 -11.139683 0.000000 0.000000 0.000000 -51.775897 -31.735419 -48.041539 -0.000399 -84.599652 -0.000408 -58.433826 26.314986 39.463508 -14.557459 10.837956 12.229975 0.749575 -4.257742 13.305539 -10.783740 -23.179374 -4.132423 0.000001 0.000000 -0.000001 -0.809543 2.578173 -31.496441 3.095898 5.163774 -61.866979 0.503791 2.378645 -23.913133 -0.000000 -0.000000 0.000001 -2.430839 1.729210 -41.460925 2.952354 5.084722 -60.259931 1.321749 3.707985 -39.227832 0.000001 -0.000001 0.000001 -6.054124 -0.166599 -49.857570 3.046247 5.137031 -61.313952 0.351701 2.001103 -19.935119 0.000001 -0.000001 0.000003 -8.298300 -6.522658 -38.520146 2.848790 5.024385 -59.084422 0.876792 3.084715 -31.727506 0.000000 0.000000 -0.000001 -15.042382 6.381670 -4.115085 0.000000 0.000000 0.000000 80.832953 134.974442 -60.173331 -0.000004 38.062028 -0.000005 -50.934831 -8.384236 -36.240349 8.377143 -4.904131 11.021991 21.620177 -18.183900 -18.379184 -0.702871 -49.821210 -32.535155 0.000002 -0.000001 0.000001 0.558928 -4.406584 25.436687 1.653061 -3.560343 49.799080 1.737709 -3.630071 51.149207 0.000001 -0.000002 -0.000000 10.969828 -12.875552 52.800832 6.387581 -4.324404 111.833679 0.247352 -1.499129 18.739114 0.000000 0.000000 0.000000 3.705095 -7.151322 57.622440 5.328206 -4.608680 98.293430 1.627343 -3.538506 49.384006 -0.000000 -0.000000 -0.000001 0.474822 -5.172990 58.987672 3.194305 -4.421934 71.674141 1.771403 -3.656906 51.679551 0.000000 -0.000000 0.000000 -61.727343 -12.750199 21.680414 53.574324 -2.099127 -0.114868 6.359133 -0.027753 -8.218116 -0.643213 -0.000021 0.000005 -0.000000 0.000003 0.000000 -56.358473 -8.736398 -6.706446 53.097020 1.477910 0.009544 7.774539 1.491131 17.099800 -9.899696 0.027080 -1.255480 -0.000000 -0.000000 0.000000 
